<svg width="31" height="30" viewBox="0 0 31 30" fill="black" xmlns="http://www.w3.org/2000/svg">
<g id="Frame">
<path id="Vector" d="M11.525 17.025L10.025 14.625H6.125V3.75H19.4L20 3.825C20.45 3.875 20.9 3.975 21.35 4.125C21.9 4.325 22.35 4.6 22.7 4.95C23.15 5.45 23.425 6.025 23.525 6.675L24.425 14.1C24.475 14.6 24.475 15 24.425 15.3C24.375 15.8 24.1875 16.2625 23.8625 16.6875C23.5375 17.1125 22.975 17.375 22.175 17.475C21.775 17.575 21.1 17.625 20.15 17.625H17.525L17.675 18.45C17.725 19.05 17.8 19.5 17.9 19.8L18.2 20.7C18.75 22.15 19.025 23.15 19.025 23.7C19.025 24.35 18.875 24.925 18.575 25.425C18.225 25.975 17.675 26.25 16.925 26.25C16.375 26.25 15.975 25.9 15.725 25.2C15.525 24.8 15.375 24.175 15.275 23.325C15.225 22.925 15.175 22.7 15.125 22.65L14.825 21.975C14.325 21.025 13.95 20.3875 13.7 20.0625C13.45 19.7375 12.825 18.875 11.825 17.475L11.525 17.025Z"/>
</g>
</svg>
