<svg width="30" height="31" viewBox="0 0 30 31" fill="none" xmlns="http://www.w3.org/2000/svg">
<g id="Frame">
<path id="Vector" d="M15 0.359375C12.2662 0.359375 9.75 1.02562 7.45 2.35938C5.18215 3.66057 3.30119 5.54153 2 7.80937C0.66625 10.1094 0 12.6256 0 15.3594C0 18.0931 0.66625 20.6094 2 22.9094C3.30119 25.1772 5.18215 27.0582 7.45 28.3594C9.75 29.6931 12.2662 30.3594 15 30.3594C17.7337 30.3594 20.25 29.6931 22.55 28.3594C24.8178 27.0582 26.6988 25.1772 28 22.9094C29.3337 20.6094 30 18.0931 30 15.3594C30 12.6256 29.3337 10.1094 28 7.80937C26.6988 5.54153 24.8178 3.66057 22.55 2.35938C20.25 1.02562 17.7337 0.359375 15 0.359375ZM18.9 15.3594H16.4V24.3594H13V15.3594H10.8V12.2594H13V10.3594C13 8.95938 13.2338 7.95937 13.7 7.35938C14.2338 6.62562 15.2 6.25937 16.6 6.25937H19.1V9.35938H17.6C17.0662 9.35938 16.7337 9.44312 16.6 9.60938C16.4662 9.77563 16.4 10.0931 16.4 10.5594V12.0594H19.1L18.9 15.3594Z" fill="#7E7E7E"/>
</g>
</svg>
