<svg width="30" height="31" viewBox="0 0 30 31" fill="none" xmlns="http://www.w3.org/2000/svg">
<g id="Frame">
<path id="Vector" d="M20 15.9594C19.8724 16.611 19.6357 17.2365 19.3 17.8094C18.9678 18.3746 18.5258 18.8676 18 19.2594C17.3046 19.7793 16.4676 20.0757 15.6 20.1094C14.743 20.1451 13.8935 19.937 13.15 19.5094C12.392 19.0852 11.7815 18.4398 11.4 17.6594C10.8 16.4594 10.6663 15.1931 11 13.8594H9.6L9.7 20.7594C9.7 20.8931 9.75 21.0256 9.85 21.1594C9.95 21.2931 10.0662 21.3594 10.2 21.3594H20.6C20.7337 21.3594 20.8662 21.2931 21 21.1594C21.1337 21.0256 21.2 20.8931 21.2 20.7594V13.8594H19.8C20 14.5256 20.0662 15.2256 20 15.9594ZM15.4 18.4594C16.2 18.4594 16.9 18.1594 17.5 17.5594C18.1 16.9594 18.4 16.2431 18.4 15.4094C18.4071 14.5946 18.1031 13.8077 17.55 13.2094C16.9837 12.5756 16.2837 12.2594 15.45 12.2594C14.6163 12.2594 13.9 12.5594 13.3 13.1594C12.7 13.7594 12.4 14.4756 12.4 15.3094C12.4 16.1431 12.6838 16.8756 13.25 17.5094C13.8163 18.1431 14.5 18.4594 15.3 18.4594H15.4ZM20.6 8.95938H19.2C19.0662 8.95938 18.9338 9.02563 18.8 9.15938C18.6663 9.29313 18.6 9.42562 18.6 9.55937V11.2594C18.7337 11.5256 18.9338 11.6594 19.2 11.6594H20.6C20.8 11.6594 20.95 11.5931 21.05 11.4594C21.1426 11.3462 21.1954 11.2056 21.2 11.0594V9.55937C21.2 9.42562 21.1337 9.29313 21 9.15938C20.8662 9.02563 20.7337 8.95938 20.6 8.95938ZM15 0.359375C12.2662 0.359375 9.75 1.02562 7.45 2.35938C5.18215 3.66057 3.30119 5.54153 2 7.80937C0.66625 10.1094 0 12.6256 0 15.3594C0 18.0931 0.66625 20.6094 2 22.9094C3.30119 25.1772 5.18215 27.0582 7.45 28.3594C9.75 29.6931 12.2662 30.3594 15 30.3594C17.7337 30.3594 20.25 29.6931 22.55 28.3594C24.8178 27.0582 26.6988 25.1772 28 22.9094C29.3337 20.6094 30 18.0931 30 15.3594C30 12.6256 29.3337 10.1094 28 7.80937C26.6988 5.54153 24.8178 3.66057 22.55 2.35938C20.25 1.02562 17.7337 0.359375 15 0.359375ZM22.8 21.4594L22.7 21.5594V21.6594C22.7028 21.8174 22.6732 21.9744 22.613 22.1206C22.5528 22.2668 22.4633 22.3991 22.35 22.5094C22.1186 22.7417 21.8223 22.8986 21.5 22.9594H9.4C9.23744 22.9604 9.07673 22.925 8.92964 22.8558C8.78255 22.7866 8.65283 22.6853 8.55 22.5594C8.32266 22.3047 8.16732 21.994 8.1 21.6594L8 21.4594L8.1 9.15938C8.1 8.82563 8.21625 8.52563 8.45 8.25938C8.68375 7.99313 8.96625 7.82562 9.3 7.75938H21.4C21.7222 7.82017 22.0186 7.97704 22.25 8.20938C22.4823 8.44081 22.6392 8.73713 22.7 9.05937L22.8 21.4594Z" fill="#7E7E7E"/>
</g>
</svg>
