<svg width="31" height="30" viewBox="0 0 31 30" fill="black" xmlns="http://www.w3.org/2000/svg">
<g id="Frame">
<path id="Vector" d="M10.025 15.375C10.525 14.575 11.025 13.75 11.525 12.9L11.975 12.3C12.925 10.95 13.5125 10.125 13.7375 9.825C13.9625 9.525 14.325 8.875 14.825 7.875L15.125 7.275C15.175 7.225 15.225 7.025 15.275 6.675C15.375 5.825 15.525 5.2 15.725 4.8C15.975 4.1 16.375 3.75 16.925 3.75C17.675 3.75 18.225 4.025 18.575 4.575C18.875 5.075 19.025 5.65 19.025 6.3C19.025 6.85 18.75 7.85 18.2 9.3L17.9 10.125C17.8 10.475 17.725 10.95 17.675 11.55L17.525 12.3H20.15L20.975 12.375C21.575 12.425 22.1 12.525 22.55 12.675C23.2 12.825 23.65 13.05 23.9 13.35C24.2 13.75 24.375 14.175 24.425 14.625C24.475 14.925 24.475 15.325 24.425 15.825L23.525 23.325C23.375 24.575 22.775 25.425 21.725 25.875C21.125 26.125 20.35 26.25 19.4 26.25H6.125V15.375H10.025Z"/>
</g>
</svg>
