<svg width="24" height="24" viewBox="0 0 24 24" fill="none" xmlns="http://www.w3.org/2000/svg">
<g id="Frame">
<path id="Vector" d="M8.25 8.25V6C8.25 5.40326 8.48705 4.83097 8.90901 4.40901C9.33097 3.98705 9.90326 3.75 10.5 3.75H13.5C14.0967 3.75 14.669 3.98705 15.091 4.40901C15.5129 4.83097 15.75 5.40326 15.75 6C15.75 6.59674 15.5129 7.16903 15.091 7.59099C14.669 8.01295 14.0967 8.25 13.5 8.25H3.75V16.5C3.75 17.4946 4.14509 18.4484 4.84835 19.1517C5.55161 19.8549 6.50544 20.25 7.5 20.25H16.5C17.4946 20.25 18.4484 19.8549 19.1517 19.1517C19.8549 18.4484 20.25 17.4946 20.25 16.5V8.25H17.5" stroke="#111111" stroke-width="1.5"/>
</g>
</svg>
