<svg width="30" height="31" viewBox="0 0 30 31" fill="none" xmlns="http://www.w3.org/2000/svg">
<g id="Frame">
<path id="Vector" d="M15 0.359375C12.2662 0.359375 9.75 1.02562 7.45 2.35938C5.18215 3.66057 3.30119 5.54153 2 7.80937C0.66625 10.1094 0 12.6256 0 15.3594C0 18.0931 0.66625 20.6094 2 22.9094C3.30119 25.1772 5.18215 27.0582 7.45 28.3594C9.75 29.6931 12.2662 30.3594 15 30.3594C17.7337 30.3594 20.25 29.6931 22.55 28.3594C24.8178 27.0582 26.6988 25.1772 28 22.9094C29.3337 20.6094 30 18.0931 30 15.3594C30 12.6256 29.3337 10.1094 28 7.80937C26.6988 5.54153 24.8178 3.66057 22.55 2.35938C20.25 1.02562 17.7337 0.359375 15 0.359375ZM22.5 11.9594V12.4594C22.5 14.1931 22.0837 15.8594 21.25 17.4594C20.4278 19.0472 19.2038 20.3919 17.7 21.3594C16.0338 22.4256 14.1663 22.9594 12.1 22.9594C10.0871 22.9745 8.11101 22.4198 6.4 21.3594H7.3C9.03375 21.3594 10.5663 20.8256 11.9 19.7594C11.1 19.7594 10.3837 19.5094 9.75 19.0094C9.11625 18.5094 8.66625 17.8594 8.4 17.0594L9.1 17.2594C9.56625 17.2594 9.9 17.1931 10.1 17.0594C9.24906 16.9353 8.47886 16.4875 7.95 15.8094C7.39832 15.1508 7.09724 14.3185 7.1 13.4594C7.63375 13.7931 8.2 13.9594 8.8 13.9594C7.66625 13.2931 7.1 12.2594 7.1 10.8594C7.1 10.1931 7.26625 9.55937 7.6 8.95938C8.6 10.1594 9.75 11.0931 11.05 11.7594C12.3696 12.4312 13.8201 12.8066 15.3 12.8594C15.1662 12.6594 15.1 12.3594 15.1 11.9594C15.1 10.9594 15.4663 10.0931 16.2 9.35938C16.9338 8.62562 17.8 8.25938 18.8 8.25938C19.8 8.25938 20.7338 8.62562 21.6 9.35938C22.2 9.22563 23 8.92562 24 8.45938C23.7338 9.39312 23.2 10.0594 22.4 10.4594H22.5C23.4338 10.2594 24.1 10.0594 24.5 9.85938C23.8337 10.7256 23.1663 11.4256 22.5 11.9594Z" fill="#7E7E7E"/>
</g>
</svg>
