<svg width="30" height="31" viewBox="0 0 30 31" fill="none" xmlns="http://www.w3.org/2000/svg">
<g id="Frame">
<path id="Vector" d="M14.1 22.3594C14.0444 22.4796 13.9582 22.583 13.85 22.6594C13.7623 22.722 13.6578 22.7569 13.55 22.7594C13.45 22.7594 13.3837 22.7256 13.35 22.6594C13.3114 22.5643 13.2944 22.4618 13.3 22.3594V18.6594H12.4V22.7594C12.3902 22.9856 12.442 23.2103 12.55 23.4094C12.65 23.5756 12.8 23.6594 13 23.6594C13.2 23.6594 13.3837 23.5931 13.55 23.4594C13.7163 23.3256 13.9 23.1594 14.1 22.9594V23.5594H15V18.6594H14.1V22.3594ZM8.7 17.8594V16.8594H12V17.8594H10.9V23.5594H9.8V17.8594H8.7ZM14.9 11.9594C14.7662 11.9594 14.65 11.9094 14.55 11.8094C14.5024 11.7644 14.4646 11.7101 14.4388 11.6499C14.413 11.5897 14.3998 11.5249 14.4 11.4594V8.45938C14.4 8.39312 14.4338 8.32563 14.5 8.25938C14.5663 8.19313 14.6838 8.15937 14.85 8.15937C15.0163 8.15937 15.15 8.19313 15.25 8.25938C15.299 8.29197 15.3386 8.3368 15.3649 8.38942C15.3912 8.44205 15.4033 8.50063 15.4 8.55937V11.4594C15.4 11.5931 15.35 11.7094 15.25 11.8094C15.205 11.8569 15.1507 11.8948 15.0905 11.9206C15.0303 11.9464 14.9655 11.9596 14.9 11.9594ZM17.4 22.3594C17.4 21.5594 17.4338 20.7256 17.5 19.8594C17.5 19.7256 17.45 19.6094 17.35 19.5094C17.25 19.4094 17.15 19.3594 17.05 19.3594H16.9L16.6 19.5594V22.5594L16.9 22.7594L17.1 22.8594C17.2338 22.8594 17.3162 22.8256 17.35 22.7594C17.3838 22.6931 17.4 22.5594 17.4 22.3594ZM17.5 18.5594C17.7663 18.5594 17.9838 18.6594 18.15 18.8594C18.3162 19.0594 18.4 19.3594 18.4 19.7594V22.5594C18.4 22.8931 18.3337 23.1594 18.2 23.3594C18.145 23.4524 18.0627 23.5262 17.9643 23.5709C17.866 23.6156 17.7562 23.6291 17.65 23.6094C17.4448 23.5832 17.2434 23.5328 17.05 23.4594C16.8997 23.407 16.7748 23.2998 16.7 23.1594V23.5594H15.7V16.8594H16.7V19.0594C16.8337 18.9256 16.9662 18.8094 17.1 18.7094C17.2132 18.6167 17.3538 18.564 17.5 18.5594ZM22.4 24.9594C22.7337 24.6931 22.9338 23.8256 23 22.3594C23.0662 21.6256 23.1337 20.9256 23.2 20.2594C23.2 19.6594 23.1337 18.9931 23 18.2594C22.8662 16.7931 22.65 15.8931 22.35 15.5594C22.05 15.2256 20.7663 14.9931 18.5 14.8594L15.2 14.7594L11.8 14.8594C9.53375 14.9931 8.25 15.2256 7.95 15.5594C7.65 15.8931 7.43375 16.7931 7.3 18.2594C7.23344 18.924 7.20006 19.5915 7.2 20.2594C7.2 20.9256 7.23375 21.6256 7.3 22.3594C7.43375 23.8256 7.65 24.7094 7.95 25.0094C8.25 25.3094 9.53375 25.5594 11.8 25.7594L15.2 25.8594L18.5 25.7594C20.7663 25.5594 22.0662 25.3256 22.4 25.0594V24.9594ZM10.5 5.35938H9.3L10.7 9.85938V12.6594H11.9V9.65938L13.3 5.35938H12.1L11.4 8.25938H11.3L10.5 5.35938ZM13.4 8.55937V11.3594C13.4 11.8256 13.5337 12.1931 13.8 12.4594C14.0662 12.7256 14.4338 12.8594 14.9 12.8594C15.3663 12.8594 15.7338 12.7256 16 12.4594C16.2663 12.1931 16.4 11.8256 16.4 11.3594V8.55937C16.4 8.15937 16.2663 7.82563 16 7.55938C15.7338 7.29313 15.3663 7.15938 14.9 7.15938C14.4338 7.15938 14.0662 7.29313 13.8 7.55938C13.5337 7.82563 13.4 8.15937 13.4 8.55937ZM17.3 7.35938V11.8594C17.2902 12.0856 17.342 12.3103 17.45 12.5094C17.55 12.6756 17.7162 12.7594 17.95 12.7594C18.1838 12.7594 18.4 12.7094 18.6 12.6094C18.8 12.5094 19 12.3594 19.2 12.1594V12.7594H20.3V7.35938H19.2V11.3594C19.1361 11.4899 19.0306 11.5955 18.9 11.6594C18.7925 11.719 18.6728 11.7532 18.55 11.7594C18.45 11.7594 18.3838 11.7431 18.35 11.7094C18.3162 11.6756 18.3 11.5931 18.3 11.4594V7.25938H17.3V7.35938ZM15 0.359375C17.7337 0.359375 20.25 1.02562 22.55 2.35938C24.8178 3.66057 26.6988 5.54153 28 7.80937C29.3337 10.1094 30 12.6256 30 15.3594C30 18.0931 29.3337 20.6094 28 22.9094C26.6988 25.1772 24.8178 27.0582 22.55 28.3594C20.25 29.6931 17.7337 30.3594 15 30.3594C12.2662 30.3594 9.75 29.6931 7.45 28.3594C5.18215 27.0582 3.30119 25.1772 2 22.9094C0.66625 20.6094 0 18.0931 0 15.3594C0 12.6256 0.66625 10.1094 2 7.80937C3.30119 5.54153 5.18215 3.66057 7.45 2.35938C9.75 1.02562 12.2662 0.359375 15 0.359375ZM20.7 20.4594L20.6 19.9594C20.6 19.7594 20.5662 19.6094 20.5 19.5094C20.4674 19.4604 20.4226 19.4208 20.37 19.3945C20.3173 19.3682 20.2587 19.3561 20.2 19.3594C20.1413 19.3561 20.0827 19.3682 20.03 19.3945C19.9774 19.4208 19.9326 19.4604 19.9 19.5094C19.8337 19.6094 19.8 19.7594 19.8 19.9594V20.4594H20.7ZM20.3 18.5594C20.7 18.5594 21.0163 18.6756 21.25 18.9094C21.4837 19.1431 21.6 19.4931 21.6 19.9594V21.1594H19.8V22.1594C19.8 22.3594 19.8337 22.5094 19.9 22.6094C19.9662 22.7094 20.0838 22.7594 20.25 22.7594C20.4163 22.7594 20.5337 22.7094 20.6 22.6094C20.6663 22.5094 20.7 22.3256 20.7 22.0594V21.8594H21.6V22.1594C21.6 22.6256 21.4837 22.9931 21.25 23.2594C21.0163 23.5256 20.6838 23.6594 20.25 23.6594C19.8163 23.6594 19.4837 23.5256 19.25 23.2594C19.0162 22.9931 18.9 22.6256 18.9 22.1594V19.9594C18.9 19.5594 19.0337 19.2256 19.3 18.9594C19.5662 18.6931 19.9 18.5594 20.3 18.5594Z" fill="#7E7E7E"/>
</g>
</svg>
